<?xml version="1.0" encoding="UTF-8" standalone="no"?>
<!-- Created with Inkscape (http://www.inkscape.org/) -->

<svg
   xmlns:dc="http://purl.org/dc/elements/1.1/"
   xmlns:cc="http://creativecommons.org/ns#"
   xmlns:rdf="http://www.w3.org/1999/02/22-rdf-syntax-ns#"
   xmlns:svg="http://www.w3.org/2000/svg"
   xmlns="http://www.w3.org/2000/svg"
   xmlns:sodipodi="http://sodipodi.sourceforge.net/DTD/sodipodi-0.dtd"
   xmlns:inkscape="http://www.inkscape.org/namespaces/inkscape"
   width="182.157mm"
   height="182.157mm"
   viewBox="0 0 182.157 182.157"
   version="1.1"
   id="svg8"
   inkscape:version="0.92.3 (2405546, 2018-03-11)"
   sodipodi:docname="caution-moose.svg"
   inkscape:export-filename="/home/algot/Documents/runeman.org/clipart/2019/caution-moose-f.png"
   inkscape:export-xdpi="91.277344"
   inkscape:export-ydpi="91.277344">
  <title
     id="title121">Caution Moose</title>
  <defs
     id="defs2">
    <filter
       inkscape:label="Drop Shadow"
       style="color-interpolation-filters:sRGB"
       id="filter4156">
      <feFlood
         result="flood"
         flood-color="rgb(0,0,0)"
         flood-opacity="0.8"
         id="feFlood4158" />
      <feComposite
         result="composite1"
         operator="in"
         in="flood"
         in2="SourceGraphic"
         id="feComposite4160" />
      <feGaussianBlur
         result="blur"
         stdDeviation="1"
         id="feGaussianBlur4162" />
      <feOffset
         result="offset"
         dy="4"
         dx="2"
         id="feOffset4164" />
      <feComposite
         result="composite2"
         operator="over"
         in="SourceGraphic"
         in2="offset"
         id="feComposite4166" />
    </filter>
  </defs>
  <sodipodi:namedview
     id="base"
     pagecolor="#ffffff"
     bordercolor="#666666"
     borderopacity="1.0"
     inkscape:pageopacity="0.0"
     inkscape:pageshadow="2"
     inkscape:zoom="0.24748737"
     inkscape:cx="117.42138"
     inkscape:cy="736.59026"
     inkscape:document-units="mm"
     inkscape:current-layer="layer1"
     showgrid="false"
     inkscape:snap-global="false"
     fit-margin-top="0"
     fit-margin-left="0"
     fit-margin-right="0"
     fit-margin-bottom="0"
     inkscape:window-width="1366"
     inkscape:window-height="712"
     inkscape:window-x="0"
     inkscape:window-y="0"
     inkscape:window-maximized="1" />
  <metadata
     id="metadata5">
    <rdf:RDF>
      <cc:Work
         rdf:about="">
        <dc:format>image/svg+xml</dc:format>
        <dc:type
           rdf:resource="http://purl.org/dc/dcmitype/StillImage" />
        <dc:title>Caution Moose</dc:title>
        <dc:date>2019-06-01</dc:date>
        <dc:creator>
          <cc:Agent>
            <dc:title>Algot Runeman</dc:title>
          </cc:Agent>
        </dc:creator>
        <dc:rights>
          <cc:Agent>
            <dc:title>Algot Runeman</dc:title>
          </cc:Agent>
        </dc:rights>
        <dc:publisher>
          <cc:Agent>
            <dc:title>runeman.org</dc:title>
          </cc:Agent>
        </dc:publisher>
        <dc:identifier>caution-moose.svg</dc:identifier>
        <cc:license
           rdf:resource="http://creativecommons.org/publicdomain/zero/1.0/" />
      </cc:Work>
      <cc:License
         rdf:about="http://creativecommons.org/publicdomain/zero/1.0/">
        <cc:permits
           rdf:resource="http://creativecommons.org/ns#Reproduction" />
        <cc:permits
           rdf:resource="http://creativecommons.org/ns#Distribution" />
        <cc:permits
           rdf:resource="http://creativecommons.org/ns#DerivativeWorks" />
      </cc:License>
    </rdf:RDF>
  </metadata>
  <g
     inkscape:label="Layer 1"
     inkscape:groupmode="layer"
     id="layer1"
     transform="translate(416.0504,6.147707)">
    <g
       id="g119"
       inkscape:export-xdpi="41.832047"
       inkscape:export-ydpi="41.832047">
      <g
         transform="matrix(2.1946625,0,0,2.1946625,-274.5071,-34.301782)"
         id="g110">
        <rect
           style="opacity:1;fill:#ffff00;fill-opacity:1;stroke:none;stroke-width:0.664653;stroke-linecap:butt;stroke-linejoin:miter;stroke-miterlimit:4;stroke-dasharray:none;stroke-dashoffset:0;stroke-opacity:1"
           id="rect106"
           width="60.042831"
           height="60.042831"
           x="-84.696869"
           y="-7.8648629"
           ry="2.3147411"
           transform="rotate(-44.999999)" />
        <rect
           style="color:#000000;display:inline;overflow:visible;visibility:visible;fill:#ffff00;fill-opacity:1;fill-rule:nonzero;stroke:#000000;stroke-width:2;stroke-linecap:round;stroke-linejoin:round;stroke-miterlimit:4;stroke-dasharray:none;stroke-dashoffset:0;stroke-opacity:1;marker:none;enable-background:accumulate"
           id="rect3007"
           width="54.61396"
           height="54.61396"
           x="-81.987625"
           y="-5.1376224"
           ry="1.6894252"
           transform="matrix(0.70727234,-0.70694119,0.70727229,0.70694124,0,0)" />
      </g>
      <path
         sodipodi:nodetypes="cccsssssssssscccccsssssssssssssssssssssssssssssssssssssssssssssssssssssssssssssssssccccccccsssssssssssssssssssssssssssccsssssssssssssssssssssssssssssssscccccc"
         inkscape:connector-curvature="0"
         id="path21"
         d="m -290.25471,83.451645 1.33635,0.534541 v -1.069078 c 0,0 -0.79648,-4.463504 -1.87089,-6.414469 -0.97434,-1.769257 -2.45658,-3.251497 -4.00904,-4.543583 -1.19784,-0.996944 -2.52859,-1.918619 -4.00904,-2.405425 -1.78531,-0.587051 -3.73758,-0.407843 -5.61266,-0.534538 -2.22396,-0.150268 -4.47133,0.02019 -6.68174,-0.267271 -1.62902,-0.211853 -3.24375,-0.576343 -4.81085,-1.069078 -1.56248,-0.491284 -3.09787,-1.101057 -4.54358,-1.870888 -1.41763,-0.754883 -2.593,-1.914848 -4.00905,-2.672694 -1.02113,-0.546489 -2.05964,-1.180217 -3.20723,-1.336346 -2.13512,-0.290481 -4.28749,0.456646 -6.41447,0.801806 -2.69043,0.436596 -8.01808,1.603619 -8.01808,1.603619 l -4.54358,1.069078 -1.33635,-0.267269 -0.80181,-0.534541 1.33635,-0.267268 c 0,0 4.26514,-0.848411 6.1472,-1.870888 1.94451,-1.056409 3.38174,-2.855243 5.07812,-4.276312 0.53339,-0.446825 1.24149,-0.742191 1.60362,-1.336347 0.42747,-0.701365 0.63489,-1.590212 0.53453,-2.405425 -0.0974,-0.790874 -0.29573,-1.946077 -1.06908,-2.138158 -0.74378,-0.184737 -1.18944,1.68703 -1.87088,1.336349 -0.39608,-0.203829 0,-0.890899 0,-1.336349 0,-0.890898 0.20468,-1.805628 0,-2.672694 -0.0458,-0.193882 -0.0681,-0.530213 -0.26727,-0.534541 -0.91702,-0.01993 -1.10627,1.517517 -1.33635,2.405428 -0.13408,0.517449 0.37798,1.22564 0,1.603616 -0.18899,0.188988 -0.61282,0.188988 -0.80181,0 -0.44097,-0.440973 -0.0762,-1.251931 0,-1.870888 0.0898,-0.729149 0.73065,-1.430159 0.53454,-2.138156 -0.16816,-0.607102 -0.75434,-1.095272 -1.33635,-1.336347 -0.24692,-0.102279 -0.61282,-0.188988 -0.8018,0 -0.69296,0.692957 0.19219,1.979008 0,2.939966 -0.22714,1.135677 -0.42066,2.498102 -1.33635,3.207234 -0.49807,0.385717 -1.52243,0.792079 -1.87089,0.267269 -0.28735,-0.432769 0.66314,-0.835718 0.80181,-1.336347 0.33293,-1.202001 0.25892,-2.521687 0,-3.741775 -0.18215,-0.858319 -0.3753,-1.868247 -1.06908,-2.405425 -0.42848,-0.331767 -1.19013,-0.617546 -1.60361,-0.267268 -0.40787,0.345512 -0.0527,1.071678 0,1.603615 0.0895,0.904121 0.44501,1.768576 0.53453,2.672697 0.10535,1.063875 0.24563,2.166755 0,3.207234 -0.22884,0.969409 -0.68928,1.915445 -1.33634,2.672696 -0.49787,0.582641 -1.1048,1.357225 -1.87089,1.336347 -0.57024,-0.01554 -1.08923,-0.554927 -1.33635,-1.069078 -0.57889,-1.204455 0.21406,-2.689951 0,-4.009043 -0.18051,-1.112356 -0.5889,-2.187747 -1.06908,-3.207234 -0.35812,-0.760356 -0.50127,-2.043051 -1.33634,-2.138156 -0.62592,-0.07128 -1.31539,0.706735 -1.33635,1.336347 -0.0315,0.946513 1.53779,1.251631 1.87088,2.138156 0.37603,1.000767 -0.0664,2.140222 0,3.207234 0.0893,1.433755 1.03294,2.929011 0.53455,4.276312 -0.45951,1.24215 -1.72016,2.156802 -2.93997,2.672696 -1.31541,0.556328 -2.98211,0.871304 -4.27631,0.267269 -1.9053,-0.889249 -2.73171,-3.23403 -3.74178,-5.078121 -0.5961,-1.088317 -0.1386,-3.150175 -1.33634,-3.474503 -0.55063,-0.149099 -1.17479,0.521982 -1.33635,1.069078 -0.71812,2.431722 4.63915,6.016506 2.40542,7.216277 -2.29224,1.231205 -2.20901,-6.17393 -4.81085,-6.147199 -0.44542,0.0046 -0.77413,0.62449 -0.8018,1.069078 -0.1339,2.150632 4.95029,4.345819 3.20723,5.612659 -1.07135,0.778646 -1.43739,-3.417543 -2.6727,-2.939963 -0.58167,0.224878 0.60471,1.718428 0,1.870885 -1.27548,0.321572 -0.62904,-3.040822 -1.87088,-3.474503 -0.64056,-0.223695 -1.70594,0.143678 -1.87089,0.801809 -0.69345,2.766688 2.98694,5.077642 5.34539,6.681737 2.00393,1.362962 4.55244,1.77779 6.94901,2.138156 0.1762,0.02649 0.48097,-0.169937 0.53454,0 0.32694,1.037171 -1.92678,1.07955 -2.6727,1.870888 -0.93277,0.98957 -1.21271,2.478076 -2.13815,3.474503 -1.34617,1.449409 -3.46469,2.025096 -4.81085,3.474505 -0.92545,0.996427 -1.45915,2.296254 -2.13816,3.474503 -0.65679,1.139692 -1.78757,2.161749 -1.87089,3.474503 -0.0786,1.238387 0.50224,2.555785 1.33635,3.474506 0.80344,0.88495 2.01216,1.62495 3.20723,1.603616 1.11612,-0.01992 1.99406,-1.010848 2.93997,-1.603616 0.6494,-0.40696 1.12157,-1.175521 1.87089,-1.33635 0.44415,-0.09533 1.04834,-0.08404 1.33634,0.267272 0.6213,0.757866 -0.42452,2.056697 0,2.939963 0.49423,1.028303 1.87865,1.318911 2.6727,2.138156 0.31002,0.319862 0.66094,0.646488 0.80181,1.069078 0.33807,1.014213 0,3.207233 0,3.207233 l 1.06907,0.26727 2.6727,-3.474503 0.80181,-4.009041 v -2.138156 l 5.07812,-1.870887 4.54358,1.603615 6.41447,5.612662 c 0,0 -0.20815,2.67103 -0.26727,4.00904 -0.18092,4.09511 0.10195,8.211955 -0.26727,12.294395 -0.20317,2.24641 -0.84715,4.43711 -1.06908,6.68174 -0.22807,2.3068 0.96635,4.98647 -0.26727,6.94901 -0.91198,1.45085 -3.95323,0.79664 -4.54358,2.40542 -0.16527,0.4504 0.15368,1.04459 0.53454,1.33635 1.21058,0.92738 3.30024,1.41751 4.54358,0.53454 0.66968,-0.47558 0.0812,-1.72047 0.53454,-2.40543 0.42294,-0.6391 1.52021,-0.6549 1.87089,-1.33634 1.10068,-2.13883 -0.40444,-4.8451 0,-7.21628 0.58744,-3.44413 2.18488,-6.64183 3.4745,-9.88898 0.97161,-2.44642 2.58956,-4.657465 3.20724,-7.216265 0.37687,-1.56125 -0.89949,-3.70712 0.26726,-4.81085 0.51776,-0.489792 1.56359,-0.421703 2.13816,0 2.63499,1.93392 2.08184,6.20057 2.93996,9.354425 0.62412,2.29382 1.2367,4.60028 1.60362,6.94901 0.49675,3.17978 1.69178,6.52885 0.80181,9.6217 -0.12318,0.42808 -0.5255,0.71968 -0.80181,1.06908 -0.86322,1.09155 -2.51226,1.82488 -2.6727,3.20723 -0.0459,0.39577 0.18962,0.86966 0.53454,1.06908 1.31344,0.75936 3.41528,0.74696 4.54359,-0.26727 0.40302,-0.36227 0.10925,-1.08526 0.26726,-1.60362 0.31389,-1.0297 1.04353,-1.90408 1.33635,-2.93996 0.19538,-0.69118 0.2872,-1.42017 0.26727,-2.13816 -0.0553,-1.99134 -0.89018,-3.89587 -1.06908,-5.87993 -0.20802,-2.30697 -0.15011,-4.63754 0,-6.949 0.13392,-2.06208 0.81441,-4.080805 0.80181,-6.147195 -0.008,-1.2599 -0.53454,-3.74178 -0.53454,-3.74178 l 7.75082,0.26727 c 0,0 -0.49892,3.28682 0,4.81085 0.51558,1.574917 2.0578,2.606195 2.93996,4.009045 0.80623,1.2821 1.95311,2.50586 2.13816,4.00904 0.13464,1.09373 -0.49371,2.1492 -0.80181,3.20724 -0.78767,2.70491 -1.08449,5.69115 -2.67269,8.01808 -0.78451,1.14942 -2.31328,1.60618 -3.20724,2.6727 -0.4614,0.55047 -1.41471,1.24125 -1.06908,1.87088 0.90131,1.64189 3.93338,1.09683 5.61266,0.26727 1.26294,-0.62389 1.75421,-2.22543 2.40543,-3.4745 1.53775,-2.94949 2.14971,-6.30335 3.4745,-9.35443 0.71408,-1.64456 1.99351,-3.06592 2.40543,-4.81086 0.16375,-0.69365 0.27274,-1.47969 0,-2.13815 -0.24108,-0.58201 -0.75434,-1.09527 -1.33635,-1.33635 -0.32923,-0.13637 -0.79548,0.22834 -1.06908,0 -1.52944,-1.276438 -1.55699,-3.948495 -1.06907,-5.879925 0.13972,-0.55308 0.50403,-1.25793 1.06907,-1.33635 0.75911,-0.10535 1.35839,0.76654 1.87089,1.33635 1.57401,1.75001 1.90049,4.397187 3.4745,6.147195 1.025,1.13962 2.69187,1.55598 3.74178,2.67269 0.57571,0.61234 1.10465,1.33026 1.33635,2.13816 1.10522,3.85369 0.92109,8.12533 0,12.02713 -0.22885,0.96941 -0.77539,1.84962 -1.33635,2.67269 -0.67502,0.99043 -1.67017,1.72613 -2.40543,2.6727 -0.3941,0.50736 -1.35722,1.02943 -1.06908,1.60362 0.76026,1.51499 3.84844,1.43393 5.07812,0.26727 0.38778,-0.36791 -0.23485,-1.12343 0,-1.60362 0.44629,-0.91249 2.00095,-0.93911 2.40543,-1.87089 0.78367,-1.8053 -0.61719,-3.91361 -0.53454,-5.87993 0.12917,-3.07314 0.63851,-6.16664 1.60362,-9.08716 0.31253,-0.94575 1.0595,-1.71589 1.33635,-2.6727 0.49772,-1.72012 1.29003,-3.72188 0.53454,-5.345388 -0.86532,-1.859527 -3.82102,-1.853917 -5.07813,-3.474497 -0.63914,-0.82393 -1.06907,-2.93996 -1.06907,-2.93996 l 1.60361,-3.741779 v -4.009041 -1.33635 l 1.87089,1.33635 z"
         style="fill:#000000;fill-rule:evenodd;stroke:#000000;stroke-width:0.26458332px;stroke-linecap:butt;stroke-linejoin:miter;stroke-opacity:1" />
      <ellipse
         ry="2.1381562"
         rx="1.0690781"
         cy="72.493599"
         cx="-358.14114"
         id="path112"
         style="opacity:1;fill:#ffff00;fill-opacity:1;stroke:none;stroke-width:2;stroke-linecap:butt;stroke-linejoin:miter;stroke-miterlimit:4;stroke-dasharray:none;stroke-dashoffset:0;stroke-opacity:1" />
    </g>
  </g>
</svg>
